<?xml version="1.0" standalone="no"?>
<!DOCTYPE svg PUBLIC "-//W3C//DTD SVG 20010904//EN"
 "http://www.w3.org/TR/2001/REC-SVG-20010904/DTD/svg10.dtd">
<svg version="1.0" xmlns="http://www.w3.org/2000/svg"
 width="1000.000000pt" height="1000.000000pt" viewBox="0 0 1000.000000 1000.000000"
 preserveAspectRatio="xMidYMid meet">
<metadata>
Created by potrace 1.14, written by Peter Selinger 2001-2017
</metadata>
<g transform="translate(0.000000,1000.000000) scale(0.100000,-0.100000)"
fill="#000000" stroke="none">
<path d="M2837 8488 c-178 -17 -340 -155 -394 -335 -16 -54 -17 -201 -17
-2238 0 -2081 1 -2182 18 -2235 38 -113 102 -198 199 -261 122 -79 -88 -73
2337 -74 1631 -1 2179 2 2222 11 181 37 329 188 363 369 12 66 14 4333 1 4393
-19 92 -82 200 -154 261 -45 39 -135 89 -174 96 -11 2 -29 7 -41 11 -28 10
-4268 11 -4360 2z"/>
<path d="M1209 2568 c0 -2 -1 -27 -2 -57 -2 -47 1 -54 20 -62 46 -17 51 -46
51 -319 0 -141 3 -276 7 -300 24 -149 158 -273 340 -315 81 -19 250 -22 330
-5 83 17 191 69 247 119 29 26 60 67 80 109 l33 67 3 382 3 383 -60 0 c-34 0
-61 -3 -62 -7 0 -5 -2 -165 -3 -358 -2 -336 -3 -352 -23 -395 -26 -54 -37 -68
-84 -103 -68 -52 -142 -68 -300 -68 -198 0 -299 46 -360 162 -22 42 -23 56
-26 270 -4 392 -2 375 -35 420 -30 41 -94 78 -135 79 -13 0 -23 -1 -24 -2z"/>
<path d="M3393 2045 l0 -525 407 0 c471 0 477 1 565 82 70 64 99 130 99 223 0
82 -31 153 -87 202 l-35 31 33 32 c139 135 82 391 -103 460 -50 19 -78 20
-466 20 l-414 0 1 -525z m852 393 c115 -61 127 -215 23 -290 -36 -25 14 -23
-568 -30 l-185 -3 -1 165 c0 91 4 167 7 170 4 3 162 5 351 4 293 0 347 -3 373
-16z m0 -450 c76 -40 112 -106 102 -190 -8 -62 -45 -113 -101 -139 -37 -17
-71 -19 -386 -19 l-345 0 0 158 c1 174 6 199 38 204 12 2 166 3 342 2 272 0
325 -3 350 -16z"/>
<path d="M5543 2045 l0 -525 501 0 501 0 0 60 0 60 -440 0 -440 0 0 165 c0
143 3 167 18 182 15 16 46 18 290 19 149 1 274 2 277 3 3 0 4 18 3 38 -1 21
-2 46 -2 56 -1 17 -17 18 -294 15 l-292 -3 0 170 0 170 422 0 423 0 0 57 0 58
-484 0 -484 0 1 -525z"/>
<path d="M7615 2048 l0 -523 61 -3 62 -3 0 178 c1 219 -1 199 18 217 13 14 50
16 254 16 l240 0 156 -195 c167 -209 197 -235 275 -235 45 0 109 26 109 44 0
6 -6 18 -13 27 -56 71 -55 71 -77 59 -11 -6 -29 -8 -40 -5 -19 6 -255 294
-247 301 2 3 13 6 23 8 82 16 189 87 226 151 38 65 47 100 44 172 -4 121 -68
221 -181 281 l-50 27 -430 3 -430 3 0 -523z m856 389 c47 -21 107 -91 115
-134 19 -101 -19 -183 -106 -232 -44 -25 -44 -25 -379 -26 -185 -1 -343 -5
-351 -9 -13 -5 -15 18 -13 181 1 104 2 199 2 213 l1 25 348 -1 c294 -1 353 -4
383 -17z"/>
</g>
</svg>
